<?xml version="1.0" encoding="UTF-8" standalone="no"?>
<svg
   xmlns:dc="http://purl.org/dc/elements/1.1/"
   xmlns:cc="http://creativecommons.org/ns#"
   xmlns:rdf="http://www.w3.org/1999/02/22-rdf-syntax-ns#"
   xmlns:svg="http://www.w3.org/2000/svg"
   xmlns="http://www.w3.org/2000/svg"
   xmlns:sodipodi="http://sodipodi.sourceforge.net/DTD/sodipodi-0.dtd"
   xmlns:inkscape="http://www.inkscape.org/namespaces/inkscape"
   version="1.0"
   width="839.6875"
   height="33.25"
   id="svg2985"
   inkscape:version="0.48.4 r9939"
   sodipodi:docname="system_design.emf">
  <metadata
     id="metadata3048">
    <rdf:RDF>
      <cc:Work
         rdf:about="">
        <dc:format>image/svg+xml</dc:format>
        <dc:type
           rdf:resource="http://purl.org/dc/dcmitype/StillImage" />
        <dc:title></dc:title>
      </cc:Work>
    </rdf:RDF>
  </metadata>
  <sodipodi:namedview
     pagecolor="#ffffff"
     bordercolor="#666666"
     borderopacity="1"
     objecttolerance="10"
     gridtolerance="10"
     guidetolerance="10"
     inkscape:pageopacity="0"
     inkscape:pageshadow="2"
     inkscape:window-width="1920"
     inkscape:window-height="1057"
     id="namedview3046"
     showgrid="false"
     fit-margin-top="0"
     fit-margin-left="0"
     fit-margin-right="0"
     fit-margin-bottom="0"
     inkscape:zoom="1.2892273"
     inkscape:cx="448.1907"
     inkscape:cy="-237.47391"
     inkscape:window-x="-8"
     inkscape:window-y="-8"
     inkscape:window-maximized="1"
     inkscape:current-layer="g2992" />
  <defs
     id="defs2987">
    <clipPath
       clipPathUnits="userSpaceOnUse"
       id="clipEmfPath1">
      <rect
         x="0"
         y="0"
         width="900.47736"
         height="675.35803"
         id="rect2990" />
    </clipPath>
  </defs>
  <g
     id="g2992"
     transform="translate(-1.96875,-66.6875)">
    <path
       style="fill:#ffffff;fill-opacity:1;fill-rule:evenodd;stroke:none"
       d="m -0.07503978,61.977633 0,40.869447 846.95694978,0 0,-40.869447 -846.95694978,0 z"
       id="path2994"
       inkscape:connector-curvature="0" />
    <path
       style="fill:#000000;fill-opacity:1;fill-rule:nonzero;stroke:#000000;stroke-width:0.00937997px;stroke-linecap:butt;stroke-linejoin:round;stroke-opacity:1;stroke-dasharray:none"
       d="m 2.0166941,68.145502 c 0,-0.778538 0.6284582,-1.406996 1.4069959,-1.406996 l 127.64267,0 c 0.77854,0 1.40699,0.628458 1.40699,1.406996 l 0,30.306691 c 0,0.778538 -0.62845,1.406996 -1.40699,1.406996 l -127.64267,0 c -0.7785377,0 -1.4069959,-0.628458 -1.4069959,-1.406996 z M 4.8306859,98.452193 3.42369,97.045198 l 127.64267,0 -1.407,1.406995 0,-30.306691 1.407,1.406996 -127.64267,0 1.4069959,-1.406996 z"
       id="path2996"
       inkscape:connector-curvature="0" />
    <text
       xml:space="preserve"
       x="12.500327"
       y="89.676285"
       style="font-size:17.55930901px;font-style:normal;font-weight:normal;text-align:start;text-anchor:start;fill:#000000;font-family:Arial"
       id="text2998">Reed </text>
    <text
       xml:space="preserve"
       x="58.874912"
       y="89.676285"
       style="font-size:17.55930901px;font-style:normal;font-weight:normal;text-align:start;text-anchor:start;fill:#000000;font-family:Arial"
       id="text3000">sensors</text>
    <path
       style="fill:#000000;fill-opacity:1;fill-rule:nonzero;stroke:#000000;stroke-width:0.00937997px;stroke-linecap:butt;stroke-linejoin:round;stroke-opacity:1;stroke-dasharray:none"
       d="m 170.4341,68.145502 c 0,-0.778538 0.62846,-1.406996 1.407,-1.406996 l 85.09511,0 c 0.77854,0 1.407,0.628458 1.407,1.406996 l 0,30.306691 c 0,0.778538 -0.62846,1.406996 -1.407,1.406996 l -85.09511,0 c -0.77854,0 -1.407,-0.628458 -1.407,-1.406996 z m 2.814,30.306691 -1.407,-1.406995 85.09511,0 -1.40699,1.406995 0,-30.306691 1.40699,1.406996 -85.09511,0 1.407,-1.406996 z"
       id="path3002"
       inkscape:connector-curvature="0" />
    <text
       xml:space="preserve"
       x="180.91541"
       y="89.676285"
       style="font-size:17.55930901px;font-style:normal;font-weight:normal;text-align:start;text-anchor:start;fill:#000000;font-family:Arial"
       id="text3004">EPS</text>
    <text
       xml:space="preserve"
       x="216.03403"
       y="89.676285"
       style="font-size:17.55930901px;font-style:normal;font-weight:normal;text-align:start;text-anchor:start;fill:#000000;font-family:Arial"
       id="text3006">-</text>
    <text
       xml:space="preserve"
       x="221.88712"
       y="89.676285"
       style="font-size:17.55930901px;font-style:normal;font-weight:normal;text-align:start;text-anchor:start;fill:#000000;font-family:Arial"
       id="text3008">01</text>
    <path
       style="fill:#000000;fill-opacity:1;fill-rule:nonzero;stroke:#000000;stroke-width:0.01875995px;stroke-linecap:butt;stroke-linejoin:round;stroke-opacity:1;stroke-dasharray:none"
       d="m 296.31334,68.154882 c 0,-0.787918 0.61908,-1.406996 1.40699,-1.406996 l 127.62391,0 c 0.78792,0 1.407,0.619078 1.407,1.406996 l 0,30.297311 c 0,0.787918 -0.61908,1.406996 -1.407,1.406996 l -127.62391,0 c -0.78791,0 -1.40699,-0.619078 -1.40699,-1.406996 z m 2.81399,30.297311 -1.407,-1.406995 127.62391,0 -1.40699,1.406995 0,-30.297311 1.40699,1.406996 -127.62391,0 1.407,-1.406996 z"
       id="path3010"
       inkscape:connector-curvature="0" />
    <text
       xml:space="preserve"
       x="306.78351"
       y="89.676285"
       style="font-size:17.55930901px;font-style:normal;font-weight:normal;text-align:start;text-anchor:start;fill:#000000;font-family:Arial"
       id="text3012">MQTT </text>
    <text
       xml:space="preserve"
       x="360.51199"
       y="89.676285"
       style="font-size:17.55930901px;font-style:normal;font-weight:normal;text-align:start;text-anchor:start;fill:#000000;font-family:Arial"
       id="text3014">broker</text>
    <path
       style="fill:#000000;fill-opacity:1;fill-rule:nonzero;stroke:#000000;stroke-width:0.01875995px;stroke-linecap:butt;stroke-linejoin:round;stroke-opacity:1;stroke-dasharray:none"
       d="m 464.72137,68.154882 c 0,-0.787918 0.63784,-1.406996 1.40699,-1.406996 l 127.64267,0 c 0.76916,0 1.407,0.619078 1.407,1.406996 l 0,30.297311 c 0,0.787918 -0.63784,1.406996 -1.407,1.406996 l -127.64267,0 c -0.76915,0 -1.40699,-0.619078 -1.40699,-1.406996 z m 2.81399,30.297311 -1.407,-1.406995 127.64267,0 -1.40699,1.406995 0,-30.297311 1.40699,1.406996 -127.64267,0 1.407,-1.406996 z"
       id="path3016"
       inkscape:connector-curvature="0" />
    <text
       xml:space="preserve"
       x="475.19858"
       y="89.676285"
       style="font-size:17.55930901px;font-style:normal;font-weight:normal;text-align:start;text-anchor:start;fill:#000000;font-family:Arial"
       id="text3018">Telegram</text>
    <text
       xml:space="preserve"
       x="551.58905"
       y="89.676285"
       style="font-size:17.55930901px;font-style:normal;font-weight:normal;text-align:start;text-anchor:start;fill:#000000;font-family:Arial"
       id="text3020">Bot</text>
    <path
       style="fill:#000000;fill-opacity:1;fill-rule:nonzero;stroke:#000000;stroke-width:0.03751989px;stroke-linecap:butt;stroke-linejoin:round;stroke-opacity:1;stroke-dasharray:none"
       d="m 633.14816,68.173642 c 0,-0.787918 0.63784,-1.425756 1.38823,-1.425756 l 205.64653,0 c 0.78791,0 1.42575,0.637838 1.42575,1.425756 l 0,30.278551 c 0,0.787918 -0.63784,1.425756 -1.42575,1.425756 l -205.64653,0 c -0.75039,0 -1.38823,-0.637838 -1.38823,-1.425756 z m 2.81399,30.278551 -1.42576,-1.388235 205.64653,0 -1.38824,1.388235 0,-30.278551 1.38824,1.388236 -205.64653,0 1.42576,-1.388236 z"
       id="path3022"
       inkscape:connector-curvature="0" />
    <text
       xml:space="preserve"
       x="643.61365"
       y="89.676285"
       style="font-size:17.55930901px;font-style:normal;font-weight:normal;text-align:start;text-anchor:start;fill:#000000;font-family:Arial"
       id="text3024">Android</text>
    <text
       xml:space="preserve"
       x="708.14783"
       y="89.676285"
       style="font-size:17.55930901px;font-style:normal;font-weight:normal;text-align:start;text-anchor:start;fill:#000000;font-family:Arial"
       id="text3026">Telegram </text>
    <text
       xml:space="preserve"
       x="784.68842"
       y="89.676285"
       style="font-size:17.55930901px;font-style:normal;font-weight:normal;text-align:start;text-anchor:start;fill:#000000;font-family:Arial"
       id="text3028">client</text>
    <path
       style="fill:#ff0000;fill-opacity:1;fill-rule:evenodd;stroke:none"
       d="m 132.46397,80.386366 32.15455,0 0,-2.917171 5.82496,5.824963 -5.82496,5.834343 0,-2.917172 -32.15455,0 z"
       id="path3030"
       inkscape:connector-curvature="0" />
    <path
       style="fill:#ff0000;fill-opacity:1;fill-rule:nonzero;stroke:#ff0000;stroke-width:0.00937997px;stroke-linecap:butt;stroke-linejoin:round;stroke-opacity:1;stroke-dasharray:none"
       d="m 131.21644,79.12945 33.40208,0 -1.25692,1.256916 0,-5.937523 8.8547,8.845315 -8.8547,8.854694 0,-5.937523 1.25692,1.256916 -33.40208,0 0,-8.338795 z m 2.49507,7.081879 -1.24754,-1.247536 33.40209,0 0,4.164708 -2.13864,-0.881718 5.83435,-5.834343 0,1.772815 -5.83435,-5.834343 2.13864,-0.881717 0,4.164707 -33.40209,0 1.24754,-1.247536 0,5.824963 z"
       id="path3032"
       inkscape:connector-curvature="0" />
    <path
       style="fill:#ff0000;fill-opacity:1;fill-rule:evenodd;stroke:none"
       d="m 258.33383,80.386366 32.14516,0 0,-2.917171 5.83435,5.824963 -5.83435,5.834343 0,-2.917172 -32.14516,0 z"
       id="path3034"
       inkscape:connector-curvature="0" />
    <path
       style="fill:#ff0000;fill-opacity:1;fill-rule:nonzero;stroke:#ff0000;stroke-width:0.00937997px;stroke-linecap:butt;stroke-linejoin:round;stroke-opacity:1;stroke-dasharray:none"
       d="m 257.07691,79.12945 33.40208,0 -1.24753,1.256916 0,-5.937523 8.84531,8.845315 -8.84531,8.854694 0,-5.937523 1.24753,1.256916 -33.40208,0 0,-8.338795 z m 2.50445,7.081879 -1.24753,-1.247536 33.40208,0 0,4.164708 -2.13863,-0.881718 5.82496,-5.834343 0,1.772815 -5.82496,-5.834343 2.13863,-0.881717 0,4.164707 -33.40208,0 1.24753,-1.247536 0,5.824963 z"
       id="path3036"
       inkscape:connector-curvature="0" />
    <path
       style="fill:#ff0000;fill-opacity:1;fill-rule:evenodd;stroke:none"
       d="m 426.75124,80.386366 32.15454,0 0,-2.907791 5.83435,5.815583 -5.83435,5.834343 0,-2.907792 -32.15454,0 z"
       id="path3038"
       inkscape:connector-curvature="0" />
    <path
       style="fill:#ff0000;fill-opacity:1;fill-rule:nonzero;stroke:#ff0000;stroke-width:0.01875995px;stroke-linecap:butt;stroke-linejoin:round;stroke-opacity:1;stroke-dasharray:none"
       d="m 425.49432,79.12945 33.41146,0 -1.25691,1.256916 0,-5.928143 8.85469,8.835935 -8.85469,8.854694 0,-5.928143 1.25691,1.238156 -33.41146,0 0,-8.329415 z m 2.51383,7.091259 -1.25691,-1.256916 33.3927,0 0,4.164708 -2.11987,-0.881718 5.81558,-5.834343 0,1.782195 -5.81558,-5.834343 2.11987,-0.881717 0,4.164707 -33.3927,0 1.25691,-1.256916 0,5.834343 z"
       id="path3040"
       inkscape:connector-curvature="0" />
    <path
       style="fill:#ff0000;fill-opacity:1;fill-rule:evenodd;stroke:none"
       d="m 595.17803,80.405126 32.15454,0 0,-2.926551 5.81559,5.815583 -5.81559,5.853103 0,-2.926552 -32.15454,0 z"
       id="path3042"
       inkscape:connector-curvature="0" />
    <path
       style="fill:#ff0000;fill-opacity:1;fill-rule:nonzero;stroke:#ff0000;stroke-width:0.03751989px;stroke-linecap:butt;stroke-linejoin:round;stroke-opacity:1;stroke-dasharray:none"
       d="m 593.93987,79.12945 33.3927,0 -1.27567,1.275676 0,-5.928143 8.85469,8.817175 -8.85469,8.854694 0,-5.928143 1.27567,1.238156 -33.3927,0 0,-8.329415 z m 2.47631,7.091259 -1.23815,-1.238156 33.3927,0 0,4.164708 -2.13863,-0.900478 5.8531,-5.815583 0,1.763435 -5.8531,-5.815583 2.13863,-0.900477 0,4.164707 -33.3927,0 1.23815,-1.238156 0,5.815583 z"
       id="path3044"
       inkscape:connector-curvature="0" />
  </g>
</svg>
